<svg xmlns="http://www.w3.org/2000/svg" xmlns:xlink="http://www.w3.org/1999/xlink" width="65" zoomAndPan="magnify" viewBox="0 0 48.75 30.000001" height="40" preserveAspectRatio="xMidYMid meet" version="1.0"><defs><g><g id="id1"/></g><clipPath id="id2"><path d="M 0.664062 8.695312 L 2.125 8.695312 L 2.125 22.558594 L 0.664062 22.558594 Z M 0.664062 8.695312 " clip-rule="nonzero"/></clipPath></defs><g clip-path="url(#id2)"><path fill="rgb(39.608765%, 50.19989%, 99.21875%)" d="M 0.664062 8.695312 L 2.125 8.695312 L 2.125 22.558594 L 0.664062 22.558594 Z M 0.664062 8.695312 " fill-opacity="1" fill-rule="nonzero"/></g><g fill="rgb(87.838745%, 87.059021%, 87.059021%)" fill-opacity="1"><g transform="translate(3.583436, 15.496402)"><g><path d="M 2.28125 -4.1875 C 2.632812 -4.1875 2.941406 -4.109375 3.203125 -3.953125 C 3.472656 -3.796875 3.675781 -3.597656 3.8125 -3.359375 L 3.8125 -4.125 L 4.5 -4.125 L 4.5 0.09375 C 4.5 0.46875 4.414062 0.800781 4.25 1.09375 C 4.09375 1.382812 3.863281 1.613281 3.5625 1.78125 C 3.269531 1.945312 2.925781 2.03125 2.53125 2.03125 C 1.988281 2.03125 1.535156 1.898438 1.171875 1.640625 C 0.816406 1.390625 0.609375 1.039062 0.546875 0.59375 L 1.21875 0.59375 C 1.289062 0.851562 1.441406 1.054688 1.671875 1.203125 C 1.910156 1.359375 2.195312 1.4375 2.53125 1.4375 C 2.90625 1.4375 3.210938 1.316406 3.453125 1.078125 C 3.691406 0.847656 3.8125 0.519531 3.8125 0.09375 L 3.8125 -0.78125 C 3.675781 -0.53125 3.472656 -0.328125 3.203125 -0.171875 C 2.941406 -0.015625 2.632812 0.0625 2.28125 0.0625 C 1.914062 0.0625 1.582031 -0.0234375 1.28125 -0.203125 C 0.976562 -0.378906 0.742188 -0.628906 0.578125 -0.953125 C 0.410156 -1.285156 0.328125 -1.660156 0.328125 -2.078125 C 0.328125 -2.492188 0.410156 -2.859375 0.578125 -3.171875 C 0.742188 -3.492188 0.976562 -3.742188 1.28125 -3.921875 C 1.582031 -4.097656 1.914062 -4.1875 2.28125 -4.1875 Z M 3.8125 -2.0625 C 3.8125 -2.375 3.75 -2.644531 3.625 -2.875 C 3.5 -3.101562 3.328125 -3.28125 3.109375 -3.40625 C 2.898438 -3.53125 2.664062 -3.59375 2.40625 -3.59375 C 2.15625 -3.59375 1.921875 -3.53125 1.703125 -3.40625 C 1.492188 -3.289062 1.328125 -3.117188 1.203125 -2.890625 C 1.078125 -2.660156 1.015625 -2.390625 1.015625 -2.078125 C 1.015625 -1.753906 1.078125 -1.476562 1.203125 -1.25 C 1.328125 -1.019531 1.492188 -0.84375 1.703125 -0.71875 C 1.921875 -0.59375 2.15625 -0.53125 2.40625 -0.53125 C 2.664062 -0.53125 2.898438 -0.59375 3.109375 -0.71875 C 3.328125 -0.84375 3.5 -1.019531 3.625 -1.25 C 3.75 -1.476562 3.8125 -1.75 3.8125 -2.0625 Z M 3.8125 -2.0625 "/></g></g></g><g fill="rgb(87.838745%, 87.059021%, 87.059021%)" fill-opacity="1"><g transform="translate(8.663043, 15.496402)"><g><path d="M 4.234375 -4.125 L 4.234375 0 L 3.546875 0 L 3.546875 -0.609375 C 3.421875 -0.398438 3.238281 -0.234375 3 -0.109375 C 2.769531 0.00390625 2.515625 0.0625 2.234375 0.0625 C 1.910156 0.0625 1.617188 -0.00390625 1.359375 -0.140625 C 1.109375 -0.273438 0.910156 -0.472656 0.765625 -0.734375 C 0.617188 -1.003906 0.546875 -1.328125 0.546875 -1.703125 L 0.546875 -4.125 L 1.21875 -4.125 L 1.21875 -1.796875 C 1.21875 -1.390625 1.316406 -1.078125 1.515625 -0.859375 C 1.722656 -0.640625 2.007812 -0.53125 2.375 -0.53125 C 2.738281 -0.53125 3.023438 -0.640625 3.234375 -0.859375 C 3.441406 -1.085938 3.546875 -1.421875 3.546875 -1.859375 L 3.546875 -4.125 Z M 4.234375 -4.125 "/></g></g></g><g fill="rgb(87.838745%, 87.059021%, 87.059021%)" fill-opacity="1"><g transform="translate(13.472136, 15.496402)"><g><path d="M 0.9375 -4.78125 C 0.800781 -4.78125 0.6875 -4.828125 0.59375 -4.921875 C 0.507812 -5.015625 0.46875 -5.125 0.46875 -5.25 C 0.46875 -5.382812 0.507812 -5.492188 0.59375 -5.578125 C 0.6875 -5.671875 0.800781 -5.71875 0.9375 -5.71875 C 1.0625 -5.71875 1.164062 -5.671875 1.25 -5.578125 C 1.34375 -5.492188 1.390625 -5.382812 1.390625 -5.25 C 1.390625 -5.125 1.34375 -5.015625 1.25 -4.921875 C 1.164062 -4.828125 1.0625 -4.78125 0.9375 -4.78125 Z M 1.265625 -4.125 L 1.265625 0 L 0.578125 0 L 0.578125 -4.125 Z M 1.265625 -4.125 "/></g></g></g><g fill="rgb(87.838745%, 87.059021%, 87.059021%)" fill-opacity="1"><g transform="translate(15.320634, 15.496402)"><g><path d="M 1.265625 -5.5625 L 1.265625 0 L 0.578125 0 L 0.578125 -5.5625 Z M 1.265625 -5.5625 "/></g></g></g><g fill="rgb(87.838745%, 87.059021%, 87.059021%)" fill-opacity="1"><g transform="translate(17.169133, 15.496402)"><g><path d="M 2.625 -4.1875 C 2.9375 -4.1875 3.21875 -4.117188 3.46875 -3.984375 C 3.71875 -3.859375 3.910156 -3.660156 4.046875 -3.390625 C 4.191406 -3.128906 4.265625 -2.804688 4.265625 -2.421875 L 4.265625 0 L 3.59375 0 L 3.59375 -2.328125 C 3.59375 -2.742188 3.488281 -3.054688 3.28125 -3.265625 C 3.070312 -3.484375 2.789062 -3.59375 2.4375 -3.59375 C 2.082031 -3.59375 1.796875 -3.476562 1.578125 -3.25 C 1.367188 -3.03125 1.265625 -2.707031 1.265625 -2.28125 L 1.265625 0 L 0.578125 0 L 0.578125 -5.5625 L 1.265625 -5.5625 L 1.265625 -3.53125 C 1.398438 -3.738281 1.582031 -3.898438 1.8125 -4.015625 C 2.050781 -4.128906 2.320312 -4.1875 2.625 -4.1875 Z M 2.625 -4.1875 "/></g></g></g><g fill="rgb(87.838745%, 87.059021%, 87.059021%)" fill-opacity="1"><g transform="translate(21.978226, 15.496402)"><g><path d="M 4.34375 -2.21875 C 4.34375 -2.082031 4.332031 -1.941406 4.3125 -1.796875 L 1.015625 -1.796875 C 1.046875 -1.390625 1.1875 -1.070312 1.4375 -0.84375 C 1.6875 -0.625 1.992188 -0.515625 2.359375 -0.515625 C 2.648438 -0.515625 2.894531 -0.582031 3.09375 -0.71875 C 3.289062 -0.851562 3.429688 -1.035156 3.515625 -1.265625 L 4.25 -1.265625 C 4.144531 -0.867188 3.925781 -0.546875 3.59375 -0.296875 C 3.257812 -0.0546875 2.847656 0.0625 2.359375 0.0625 C 1.972656 0.0625 1.625 -0.0195312 1.3125 -0.1875 C 1 -0.363281 0.753906 -0.613281 0.578125 -0.9375 C 0.410156 -1.257812 0.328125 -1.632812 0.328125 -2.0625 C 0.328125 -2.488281 0.410156 -2.863281 0.578125 -3.1875 C 0.742188 -3.507812 0.984375 -3.753906 1.296875 -3.921875 C 1.609375 -4.097656 1.960938 -4.1875 2.359375 -4.1875 C 2.753906 -4.1875 3.097656 -4.097656 3.390625 -3.921875 C 3.691406 -3.753906 3.925781 -3.519531 4.09375 -3.21875 C 4.257812 -2.925781 4.34375 -2.59375 4.34375 -2.21875 Z M 3.625 -2.359375 C 3.625 -2.617188 3.566406 -2.84375 3.453125 -3.03125 C 3.335938 -3.21875 3.179688 -3.359375 2.984375 -3.453125 C 2.785156 -3.554688 2.566406 -3.609375 2.328125 -3.609375 C 1.984375 -3.609375 1.6875 -3.5 1.4375 -3.28125 C 1.195312 -3.0625 1.0625 -2.753906 1.03125 -2.359375 Z M 3.625 -2.359375 "/></g></g></g><g fill="rgb(87.838745%, 87.059021%, 87.059021%)" fill-opacity="1"><g transform="translate(26.637033, 15.496402)"><g><path d="M 1.265625 -3.453125 C 1.378906 -3.679688 1.546875 -3.859375 1.765625 -3.984375 C 1.992188 -4.117188 2.269531 -4.1875 2.59375 -4.1875 L 2.59375 -3.484375 L 2.40625 -3.484375 C 1.644531 -3.484375 1.265625 -3.066406 1.265625 -2.234375 L 1.265625 0 L 0.578125 0 L 0.578125 -4.125 L 1.265625 -4.125 Z M 1.265625 -3.453125 "/></g></g></g><g fill="rgb(87.838745%, 87.059021%, 87.059021%)" fill-opacity="1"><g transform="translate(29.43983, 15.496402)"><g><path d="M 5.53125 -4.1875 C 5.851562 -4.1875 6.140625 -4.117188 6.390625 -3.984375 C 6.640625 -3.859375 6.835938 -3.660156 6.984375 -3.390625 C 7.128906 -3.128906 7.203125 -2.804688 7.203125 -2.421875 L 7.203125 0 L 6.53125 0 L 6.53125 -2.328125 C 6.53125 -2.742188 6.425781 -3.054688 6.21875 -3.265625 C 6.019531 -3.484375 5.742188 -3.59375 5.390625 -3.59375 C 5.035156 -3.59375 4.753906 -3.476562 4.546875 -3.25 C 4.335938 -3.03125 4.234375 -2.703125 4.234375 -2.265625 L 4.234375 0 L 3.5625 0 L 3.5625 -2.328125 C 3.5625 -2.742188 3.457031 -3.054688 3.25 -3.265625 C 3.050781 -3.484375 2.773438 -3.59375 2.421875 -3.59375 C 2.066406 -3.59375 1.785156 -3.476562 1.578125 -3.25 C 1.367188 -3.03125 1.265625 -2.703125 1.265625 -2.265625 L 1.265625 0 L 0.578125 0 L 0.578125 -4.125 L 1.265625 -4.125 L 1.265625 -3.53125 C 1.398438 -3.738281 1.582031 -3.898438 1.8125 -4.015625 C 2.039062 -4.128906 2.289062 -4.1875 2.5625 -4.1875 C 2.90625 -4.1875 3.207031 -4.109375 3.46875 -3.953125 C 3.738281 -3.804688 3.941406 -3.582031 4.078125 -3.28125 C 4.191406 -3.570312 4.378906 -3.796875 4.640625 -3.953125 C 4.910156 -4.109375 5.207031 -4.1875 5.53125 -4.1875 Z M 5.53125 -4.1875 "/></g></g></g><g fill="rgb(87.838745%, 87.059021%, 87.059021%)" fill-opacity="1"><g transform="translate(37.179468, 15.496402)"><g><path d="M 4.34375 -2.21875 C 4.34375 -2.082031 4.332031 -1.941406 4.3125 -1.796875 L 1.015625 -1.796875 C 1.046875 -1.390625 1.1875 -1.070312 1.4375 -0.84375 C 1.6875 -0.625 1.992188 -0.515625 2.359375 -0.515625 C 2.648438 -0.515625 2.894531 -0.582031 3.09375 -0.71875 C 3.289062 -0.851562 3.429688 -1.035156 3.515625 -1.265625 L 4.25 -1.265625 C 4.144531 -0.867188 3.925781 -0.546875 3.59375 -0.296875 C 3.257812 -0.0546875 2.847656 0.0625 2.359375 0.0625 C 1.972656 0.0625 1.625 -0.0195312 1.3125 -0.1875 C 1 -0.363281 0.753906 -0.613281 0.578125 -0.9375 C 0.410156 -1.257812 0.328125 -1.632812 0.328125 -2.0625 C 0.328125 -2.488281 0.410156 -2.863281 0.578125 -3.1875 C 0.742188 -3.507812 0.984375 -3.753906 1.296875 -3.921875 C 1.609375 -4.097656 1.960938 -4.1875 2.359375 -4.1875 C 2.753906 -4.1875 3.097656 -4.097656 3.390625 -3.921875 C 3.691406 -3.753906 3.925781 -3.519531 4.09375 -3.21875 C 4.257812 -2.925781 4.34375 -2.59375 4.34375 -2.21875 Z M 3.625 -2.359375 C 3.625 -2.617188 3.566406 -2.84375 3.453125 -3.03125 C 3.335938 -3.21875 3.179688 -3.359375 2.984375 -3.453125 C 2.785156 -3.554688 2.566406 -3.609375 2.328125 -3.609375 C 1.984375 -3.609375 1.6875 -3.5 1.4375 -3.28125 C 1.195312 -3.0625 1.0625 -2.753906 1.03125 -2.359375 Z M 3.625 -2.359375 "/></g></g></g><g fill="rgb(87.838745%, 87.059021%, 87.059021%)" fill-opacity="1"><g transform="translate(3.583436, 21.758199)"><g><path d="M 0.328125 -2.078125 C 0.328125 -2.492188 0.410156 -2.859375 0.578125 -3.171875 C 0.742188 -3.492188 0.976562 -3.742188 1.28125 -3.921875 C 1.582031 -4.097656 1.914062 -4.1875 2.28125 -4.1875 C 2.601562 -4.1875 2.898438 -4.113281 3.171875 -3.96875 C 3.453125 -3.820312 3.664062 -3.625 3.8125 -3.375 L 3.8125 -5.5625 L 4.5 -5.5625 L 4.5 0 L 3.8125 0 L 3.8125 -0.78125 C 3.675781 -0.53125 3.472656 -0.328125 3.203125 -0.171875 C 2.941406 -0.015625 2.632812 0.0625 2.28125 0.0625 C 1.914062 0.0625 1.582031 -0.0234375 1.28125 -0.203125 C 0.976562 -0.378906 0.742188 -0.628906 0.578125 -0.953125 C 0.410156 -1.285156 0.328125 -1.660156 0.328125 -2.078125 Z M 3.8125 -2.0625 C 3.8125 -2.375 3.75 -2.644531 3.625 -2.875 C 3.5 -3.101562 3.328125 -3.28125 3.109375 -3.40625 C 2.898438 -3.53125 2.664062 -3.59375 2.40625 -3.59375 C 2.15625 -3.59375 1.921875 -3.53125 1.703125 -3.40625 C 1.492188 -3.289062 1.328125 -3.117188 1.203125 -2.890625 C 1.078125 -2.660156 1.015625 -2.390625 1.015625 -2.078125 C 1.015625 -1.753906 1.078125 -1.476562 1.203125 -1.25 C 1.328125 -1.019531 1.492188 -0.84375 1.703125 -0.71875 C 1.921875 -0.59375 2.15625 -0.53125 2.40625 -0.53125 C 2.664062 -0.53125 2.898438 -0.59375 3.109375 -0.71875 C 3.328125 -0.84375 3.5 -1.019531 3.625 -1.25 C 3.75 -1.476562 3.8125 -1.75 3.8125 -2.0625 Z M 3.8125 -2.0625 "/></g></g></g><g fill="rgb(87.838745%, 87.059021%, 87.059021%)" fill-opacity="1"><g transform="translate(8.663043, 21.758199)"><g><path d="M 4.34375 -2.21875 C 4.34375 -2.082031 4.332031 -1.941406 4.3125 -1.796875 L 1.015625 -1.796875 C 1.046875 -1.390625 1.1875 -1.070312 1.4375 -0.84375 C 1.6875 -0.625 1.992188 -0.515625 2.359375 -0.515625 C 2.648438 -0.515625 2.894531 -0.582031 3.09375 -0.71875 C 3.289062 -0.851562 3.429688 -1.035156 3.515625 -1.265625 L 4.25 -1.265625 C 4.144531 -0.867188 3.925781 -0.546875 3.59375 -0.296875 C 3.257812 -0.0546875 2.847656 0.0625 2.359375 0.0625 C 1.972656 0.0625 1.625 -0.0195312 1.3125 -0.1875 C 1 -0.363281 0.753906 -0.613281 0.578125 -0.9375 C 0.410156 -1.257812 0.328125 -1.632812 0.328125 -2.0625 C 0.328125 -2.488281 0.410156 -2.863281 0.578125 -3.1875 C 0.742188 -3.507812 0.984375 -3.753906 1.296875 -3.921875 C 1.609375 -4.097656 1.960938 -4.1875 2.359375 -4.1875 C 2.753906 -4.1875 3.097656 -4.097656 3.390625 -3.921875 C 3.691406 -3.753906 3.925781 -3.519531 4.09375 -3.21875 C 4.257812 -2.925781 4.34375 -2.59375 4.34375 -2.21875 Z M 3.625 -2.359375 C 3.625 -2.617188 3.566406 -2.84375 3.453125 -3.03125 C 3.335938 -3.21875 3.179688 -3.359375 2.984375 -3.453125 C 2.785156 -3.554688 2.566406 -3.609375 2.328125 -3.609375 C 1.984375 -3.609375 1.6875 -3.5 1.4375 -3.28125 C 1.195312 -3.0625 1.0625 -2.753906 1.03125 -2.359375 Z M 3.625 -2.359375 "/></g></g></g><g fill="rgb(87.838745%, 87.059021%, 87.059021%)" fill-opacity="1"><g transform="translate(13.321849, 21.758199)"><g><path d="M 1.09375 -0.5625 L 3.109375 -0.5625 L 3.109375 0 L 0.3125 0 L 0.3125 -0.5625 L 2.3125 -3.5625 L 0.328125 -3.5625 L 0.328125 -4.125 L 3.09375 -4.125 L 3.09375 -3.5625 Z M 1.09375 -0.5625 "/></g></g></g><g fill="rgb(87.838745%, 87.059021%, 87.059021%)" fill-opacity="1"><g transform="translate(16.740813, 21.758199)"><g><path d="M 0.328125 -2.078125 C 0.328125 -2.492188 0.410156 -2.859375 0.578125 -3.171875 C 0.742188 -3.492188 0.976562 -3.742188 1.28125 -3.921875 C 1.582031 -4.097656 1.914062 -4.1875 2.28125 -4.1875 C 2.632812 -4.1875 2.941406 -4.109375 3.203125 -3.953125 C 3.472656 -3.796875 3.675781 -3.597656 3.8125 -3.359375 L 3.8125 -4.125 L 4.5 -4.125 L 4.5 0 L 3.8125 0 L 3.8125 -0.765625 C 3.675781 -0.523438 3.472656 -0.328125 3.203125 -0.171875 C 2.929688 -0.015625 2.617188 0.0625 2.265625 0.0625 C 1.898438 0.0625 1.566406 -0.0234375 1.265625 -0.203125 C 0.972656 -0.378906 0.742188 -0.628906 0.578125 -0.953125 C 0.410156 -1.285156 0.328125 -1.660156 0.328125 -2.078125 Z M 3.8125 -2.0625 C 3.8125 -2.375 3.75 -2.644531 3.625 -2.875 C 3.5 -3.101562 3.328125 -3.28125 3.109375 -3.40625 C 2.898438 -3.53125 2.664062 -3.59375 2.40625 -3.59375 C 2.15625 -3.59375 1.921875 -3.53125 1.703125 -3.40625 C 1.492188 -3.289062 1.328125 -3.117188 1.203125 -2.890625 C 1.078125 -2.660156 1.015625 -2.390625 1.015625 -2.078125 C 1.015625 -1.753906 1.078125 -1.476562 1.203125 -1.25 C 1.328125 -1.019531 1.492188 -0.84375 1.703125 -0.71875 C 1.921875 -0.59375 2.15625 -0.53125 2.40625 -0.53125 C 2.664062 -0.53125 2.898438 -0.59375 3.109375 -0.71875 C 3.328125 -0.84375 3.5 -1.019531 3.625 -1.25 C 3.75 -1.476562 3.8125 -1.75 3.8125 -2.0625 Z M 3.8125 -2.0625 "/></g></g></g><g fill="rgb(87.838745%, 87.059021%, 87.059021%)" fill-opacity="1"><g transform="translate(21.82042, 21.758199)"><g><path d="M 2.578125 -4.1875 C 3.085938 -4.1875 3.492188 -4.035156 3.796875 -3.734375 C 4.109375 -3.429688 4.265625 -2.992188 4.265625 -2.421875 L 4.265625 0 L 3.59375 0 L 3.59375 -2.328125 C 3.59375 -2.742188 3.488281 -3.054688 3.28125 -3.265625 C 3.070312 -3.484375 2.789062 -3.59375 2.4375 -3.59375 C 2.082031 -3.59375 1.796875 -3.476562 1.578125 -3.25 C 1.367188 -3.03125 1.265625 -2.707031 1.265625 -2.28125 L 1.265625 0 L 0.578125 0 L 0.578125 -4.125 L 1.265625 -4.125 L 1.265625 -3.53125 C 1.398438 -3.738281 1.582031 -3.898438 1.8125 -4.015625 C 2.050781 -4.128906 2.304688 -4.1875 2.578125 -4.1875 Z M 2.578125 -4.1875 "/></g></g></g></svg>